<svg width="1727" height="162" viewBox="0 0 1727 162" fill="none" xmlns="http://www.w3.org/2000/svg">
<path d="M1421.21 2H1408.63V160.12H1421.21V2Z" fill="white"/>
<path d="M43.0493 154.151V29.6345H0.722717V7.68739H111.354V29.6345H69.0275V154.151H43.0493Z" fill="white"/>
<path d="M129.023 154.151V7.68739H217.26V29.6345H155.002V67.0341H207.63V88.9812H155.002V132.204H219.499V154.151H129.023Z" fill="white"/>
<path d="M242.809 154.151V7.68739H268.787V132.204H329.702V154.151H242.809Z" fill="white"/>
<path d="M348.503 154.151V7.68739H436.739V29.6345H374.481V67.0341H427.11V88.9812H374.481V132.204H438.979V154.151H348.503Z" fill="white"/>
<path d="M488.491 154.151L442.805 7.68739H470.351L490.954 81.3669C493.343 89.7277 495.433 97.6406 497.225 105.106C499.166 112.571 501.406 120.558 503.944 129.068H504.839C507.377 120.558 509.542 112.571 511.334 105.106C513.275 97.6406 515.365 89.7277 517.605 81.3669L537.984 7.68739H564.634L519.172 154.151H488.491Z" fill="white"/>
<path d="M575.637 154.151V7.68739H601.616V154.151H575.637Z" fill="white"/>
<path d="M690.574 156.838C681.318 156.838 672.658 155.196 664.596 151.911C656.534 148.627 649.517 143.774 643.545 137.354C637.722 130.935 633.094 123.022 629.66 113.616C626.226 104.21 624.509 93.4602 624.509 81.3669C624.509 69.4229 626.226 58.748 629.66 49.3421C633.243 39.7869 638.021 31.7247 643.993 25.1555C650.114 18.5863 657.206 13.5848 665.268 10.1509C673.48 6.71695 682.214 5 691.47 5C700.727 5 708.938 6.86625 716.105 10.5987C723.271 14.3312 729.169 18.6609 733.797 23.5879L719.912 40.3841C716.03 36.5023 711.85 33.4416 707.371 31.2021C702.892 28.8134 697.815 27.619 692.142 27.619C686.17 27.619 680.646 28.888 675.57 31.4261C670.643 33.8149 666.313 37.3234 662.581 41.9517C658.997 46.4307 656.161 51.9548 654.071 58.524C652.13 65.0932 651.159 72.4836 651.159 80.6951C651.159 97.4167 654.742 110.555 661.909 120.11C669.225 129.516 679.078 134.219 691.47 134.219C698.039 134.219 703.862 132.875 708.938 130.188C714.015 127.351 718.643 123.694 722.823 119.215L736.708 135.563C730.736 142.431 723.868 147.731 716.105 151.463C708.49 155.047 699.98 156.838 690.574 156.838Z" fill="white"/>
<path d="M754.439 154.151V7.68739H842.675V29.6345H780.417V67.0341H833.045V88.9812H780.417V132.204H844.914V154.151H754.439Z" fill="white"/>
<path d="M868.224 154.151V7.68739H894.875L940.56 90.101L955.565 121.23H956.461C955.864 113.616 955.117 105.479 954.221 96.8195C953.475 88.0108 953.102 79.5007 953.102 71.2892V7.68739H977.96V154.151H951.31L905.624 71.7371L890.62 40.608H889.724C890.321 48.3716 890.993 56.5085 891.739 65.0186C892.635 73.5287 893.083 81.8895 893.083 90.101V154.151H868.224Z" fill="white"/>
<path d="M1038.03 154.151V29.6345H995.708V7.68739H1106.34V29.6345H1064.01V154.151H1038.03Z" fill="white"/>
<path d="M1124.01 154.151V7.68739H1173.5C1181.12 7.68739 1188.21 8.43389 1194.78 9.92689C1201.35 11.4199 1207.02 13.8834 1211.8 17.3173C1216.57 20.6018 1220.31 25.0062 1222.99 30.5303C1225.83 36.0544 1227.25 42.9222 1227.25 51.1337C1227.25 62.3312 1224.56 71.3638 1219.19 78.2316C1213.96 85.0994 1206.94 90.0264 1198.14 93.0124L1233.07 154.151H1203.96L1172.38 96.8195H1149.99V154.151H1124.01ZM1149.99 76.2161H1170.81C1180.82 76.2161 1188.43 74.1259 1193.66 69.9455C1199.03 65.7651 1201.72 59.4945 1201.72 51.1337C1201.72 42.6236 1199.03 36.7262 1193.66 33.4416C1188.43 30.157 1180.82 28.5147 1170.81 28.5147H1149.99V76.2161Z" fill="white"/>
<path d="M1306.71 156.838C1297.15 156.838 1288.42 155.121 1280.5 151.687C1272.59 148.104 1265.8 143.028 1260.12 136.459C1254.45 129.74 1250.05 121.678 1246.91 112.272C1243.78 102.866 1242.21 92.1912 1242.21 80.2472C1242.21 68.4525 1243.78 57.9268 1246.91 48.6702C1250.05 39.2643 1254.45 31.3514 1260.12 24.9315C1265.8 18.5116 1272.59 13.5848 1280.5 10.1509C1288.42 6.71695 1297.15 5 1306.71 5C1316.26 5 1325 6.71695 1332.91 10.1509C1340.82 13.5848 1347.61 18.5116 1353.29 24.9315C1359.11 31.3514 1363.59 39.2643 1366.72 48.6702C1369.86 57.9268 1371.43 68.4525 1371.43 80.2472C1371.43 92.1912 1369.86 102.866 1366.72 112.272C1363.59 121.678 1359.11 129.74 1353.29 136.459C1347.61 143.028 1340.82 148.104 1332.91 151.687C1325 155.121 1316.26 156.838 1306.71 156.838ZM1306.71 134.219C1312.53 134.219 1317.75 132.95 1322.38 130.412C1327.01 127.874 1330.97 124.291 1334.25 119.662C1337.54 114.885 1340.07 109.211 1341.87 102.642C1343.66 95.9237 1344.55 88.4587 1344.55 80.2472C1344.55 63.8242 1341.12 50.9844 1334.25 41.7278C1327.53 32.3219 1318.35 27.619 1306.71 27.619C1295.06 27.619 1285.8 32.3219 1278.94 41.7278C1272.22 50.9844 1268.86 63.8242 1268.86 80.2472C1268.86 88.4587 1269.75 95.9237 1271.55 102.642C1273.34 109.211 1275.88 114.885 1279.16 119.662C1282.45 124.291 1286.4 127.874 1291.03 130.412C1295.66 132.95 1300.88 134.219 1306.71 134.219Z" fill="white"/>
<path d="M1700 38.18C1709.56 38.1677 1718.8 41.5767 1726.06 47.79V4.74002C1712.71 0.00775528 1698.33 -0.997605 1684.45 1.832C1670.57 4.66161 1657.73 11.2192 1647.3 20.8L1655.91 0.0500183H1606.06L1590.65 61.23L1575.13 0H1525.19L1527.64 6.20999C1523.24 2.37713 1517.65 0.192388 1511.82 0.0299988C1512.08 0.0299988 1512.33 0.0299988 1512.59 0.0299988H1456.59V38.7C1456.59 40.4328 1457.28 42.0948 1458.5 43.321C1459.73 44.5472 1461.39 45.2374 1463.12 45.24H1490.21V156.51H1535V45.2H1543L1588.86 161.57L1622.03 81.66C1622.53 93.8631 1625.89 105.778 1631.84 116.445C1637.79 127.111 1646.16 136.232 1656.28 143.073C1666.4 149.913 1677.98 154.282 1690.09 155.827C1702.21 157.373 1714.52 156.051 1726.03 151.97V108.97C1721.1 113.156 1715.23 116.089 1708.93 117.522C1702.62 118.954 1696.06 118.843 1689.81 117.198C1683.56 115.553 1677.79 112.423 1673.01 108.073C1668.22 103.723 1664.56 98.2825 1662.33 92.2133C1660.1 86.1441 1659.36 79.6258 1660.19 73.2124C1661.02 66.799 1663.38 60.6801 1667.08 55.3756C1670.78 50.0712 1675.7 45.7379 1681.43 42.7442C1687.16 39.7504 1693.53 38.1847 1700 38.18V38.18Z" fill="#F1BA1B"/>
</svg>
